<svg width="237" height="70" viewBox="0 0 237 70" fill="none" xmlns="http://www.w3.org/2000/svg">
<path d="M19.024 26.264C19.1947 26.264 19.344 26.3333 19.472 26.472L20.704 27.8C19.7653 28.888 18.624 29.736 17.28 30.344C15.9467 30.952 14.3307 31.256 12.432 31.256C10.7893 31.256 9.296 30.9733 7.952 30.408C6.608 29.832 5.46133 29.032 4.512 28.008C3.56267 26.9733 2.82667 25.736 2.304 24.296C1.78133 22.856 1.52 21.272 1.52 19.544C1.52 17.816 1.792 16.232 2.336 14.792C2.88 13.352 3.64267 12.1147 4.624 11.08C5.616 10.0453 6.8 9.24533 8.176 8.68C9.552 8.104 11.072 7.816 12.736 7.816C14.368 7.816 15.808 8.07733 17.056 8.6C18.304 9.12267 19.4027 9.832 20.352 10.728L19.328 12.152C19.264 12.2587 19.1787 12.3493 19.072 12.424C18.976 12.488 18.8427 12.52 18.672 12.52C18.48 12.52 18.2453 12.4187 17.968 12.216C17.6907 12.0027 17.328 11.768 16.88 11.512C16.432 11.256 15.872 11.0267 15.2 10.824C14.528 10.6107 13.7013 10.504 12.72 10.504C11.536 10.504 10.4533 10.712 9.472 11.128C8.49067 11.5333 7.64267 12.1253 6.928 12.904C6.224 13.6827 5.67467 14.632 5.28 15.752C4.88533 16.872 4.688 18.136 4.688 19.544C4.688 20.9733 4.89067 22.248 5.296 23.368C5.712 24.488 6.272 25.4373 6.976 26.216C7.69067 26.984 8.528 27.5707 9.488 27.976C10.4587 28.3813 11.504 28.584 12.624 28.584C13.3067 28.584 13.92 28.5467 14.464 28.472C15.0187 28.3867 15.5253 28.2587 15.984 28.088C16.4533 27.9173 16.8853 27.704 17.28 27.448C17.6853 27.1813 18.0853 26.8667 18.48 26.504C18.6613 26.344 18.8427 26.264 19.024 26.264ZM34.799 28.92V17.032H29.663C29.5563 18.696 29.407 20.168 29.215 21.448C29.023 22.728 28.799 23.8533 28.543 24.824C28.2977 25.784 28.0203 26.6 27.711 27.272C27.4123 27.944 27.0977 28.4933 26.767 28.92H34.799ZM40.527 28.84V35.704C40.527 35.9813 40.447 36.1947 40.287 36.344C40.1377 36.504 39.9403 36.584 39.695 36.584H37.951V31H24.319V35.768C24.319 35.9707 24.255 36.1573 24.127 36.328C24.0097 36.4987 23.8123 36.584 23.535 36.584H21.743V28.92H22.271C22.6443 28.92 23.0123 28.856 23.375 28.728C23.7483 28.6 24.1057 28.36 24.447 28.008C24.7883 27.6453 25.1083 27.1387 25.407 26.488C25.7163 25.8373 25.9937 24.9893 26.239 23.944C26.4843 22.8987 26.6977 21.6293 26.879 20.136C27.0603 18.632 27.2043 16.8507 27.311 14.792H37.567V28.84H40.527ZM53.979 21.128C53.979 20.4667 53.883 19.864 53.691 19.32C53.5097 18.7653 53.2377 18.2907 52.875 17.896C52.523 17.4907 52.091 17.1813 51.579 16.968C51.067 16.744 50.4857 16.632 49.835 16.632C48.4697 16.632 47.387 17.032 46.587 17.832C45.7977 18.6213 45.307 19.72 45.115 21.128H53.979ZM56.283 28.728C55.931 29.1547 55.5097 29.528 55.019 29.848C54.5283 30.1573 54.0003 30.4133 53.435 30.616C52.8803 30.8187 52.3043 30.968 51.707 31.064C51.1097 31.1707 50.5177 31.224 49.931 31.224C48.811 31.224 47.7763 31.0373 46.827 30.664C45.8883 30.28 45.0723 29.7253 44.379 29C43.6963 28.264 43.163 27.3573 42.779 26.28C42.395 25.2027 42.203 23.9653 42.203 22.568C42.203 21.4373 42.3737 20.3813 42.715 19.4C43.067 18.4187 43.5683 17.5707 44.219 16.856C44.8697 16.1307 45.6643 15.5653 46.603 15.16C47.5417 14.744 48.5977 14.536 49.771 14.536C50.7417 14.536 51.6377 14.7013 52.459 15.032C53.291 15.352 54.0057 15.8213 54.603 16.44C55.211 17.048 55.6857 17.8053 56.027 18.712C56.3683 19.608 56.539 20.632 56.539 21.784C56.539 22.232 56.491 22.5307 56.395 22.68C56.299 22.8293 56.1177 22.904 55.851 22.904H45.019C45.051 23.928 45.1897 24.8187 45.435 25.576C45.691 26.3333 46.043 26.968 46.491 27.48C46.939 27.9813 47.4723 28.36 48.091 28.616C48.7097 28.8613 49.403 28.984 50.171 28.984C50.8857 28.984 51.499 28.904 52.011 28.744C52.5337 28.5733 52.9817 28.392 53.355 28.2C53.7283 28.008 54.0377 27.832 54.283 27.672C54.539 27.5013 54.7577 27.416 54.939 27.416C55.1737 27.416 55.355 27.5067 55.483 27.688L56.283 28.728ZM74.2453 31H71.3973V17.032H66.2773C66.1493 19.0907 65.9573 20.872 65.7013 22.376C65.4453 23.8693 65.1359 25.144 64.7733 26.2C64.4213 27.2453 64.0213 28.0987 63.5733 28.76C63.1359 29.4107 62.6719 29.9173 62.1813 30.28C61.7013 30.6427 61.1999 30.888 60.6773 31.016C60.1653 31.144 59.6533 31.208 59.1413 31.208C58.2346 31.208 57.7812 31.064 57.7812 30.776V28.968H58.6133C58.9759 28.968 59.3439 28.904 59.7173 28.776C60.0906 28.648 60.4533 28.4027 60.8053 28.04C61.1679 27.6773 61.5146 27.1707 61.8453 26.52C62.1759 25.8587 62.4746 25.0053 62.7413 23.96C63.0186 22.904 63.2533 21.6293 63.4453 20.136C63.6479 18.632 63.8026 16.8507 63.9093 14.792H74.2453V31ZM87.54 23.704C86.228 23.7467 85.108 23.8533 84.18 24.024C83.2627 24.184 82.5107 24.3973 81.924 24.664C81.348 24.9307 80.9267 25.2453 80.66 25.608C80.404 25.9707 80.276 26.376 80.276 26.824C80.276 27.2507 80.3453 27.6187 80.484 27.928C80.6227 28.2373 80.8093 28.4933 81.044 28.696C81.2893 28.888 81.572 29.032 81.892 29.128C82.2227 29.2133 82.5747 29.256 82.948 29.256C83.4493 29.256 83.908 29.208 84.324 29.112C84.74 29.0053 85.1293 28.856 85.492 28.664C85.8653 28.472 86.2173 28.2427 86.548 27.976C86.8893 27.7093 87.22 27.4053 87.54 27.064V23.704ZM78.34 17.08C79.236 16.216 80.2013 15.5707 81.236 15.144C82.2707 14.7173 83.4173 14.504 84.676 14.504C85.5827 14.504 86.388 14.6533 87.092 14.952C87.796 15.2507 88.388 15.6667 88.868 16.2C89.348 16.7333 89.7107 17.3787 89.956 18.136C90.2013 18.8933 90.324 19.7253 90.324 20.632V31H89.06C88.7827 31 88.5693 30.9573 88.42 30.872C88.2707 30.776 88.1533 30.5947 88.068 30.328L87.748 28.792C87.3213 29.1867 86.9053 29.5387 86.5 29.848C86.0947 30.1467 85.668 30.4027 85.22 30.616C84.772 30.8187 84.292 30.9733 83.78 31.08C83.2787 31.1973 82.7187 31.256 82.1 31.256C81.4707 31.256 80.8787 31.1707 80.324 31C79.7693 30.8187 79.284 30.552 78.868 30.2C78.4627 29.848 78.1373 29.4053 77.892 28.872C77.6573 28.328 77.54 27.688 77.54 26.952C77.54 26.312 77.716 25.6987 78.068 25.112C78.42 24.5147 78.9907 23.9867 79.78 23.528C80.5693 23.0693 81.5987 22.696 82.868 22.408C84.1373 22.1093 85.6947 21.9387 87.54 21.896V20.632C87.54 19.3733 87.268 18.424 86.724 17.784C86.18 17.1333 85.3853 16.808 84.34 16.808C83.636 16.808 83.044 16.8987 82.564 17.08C82.0947 17.2507 81.684 17.448 81.332 17.672C80.9907 17.8853 80.692 18.0827 80.436 18.264C80.1907 18.4347 79.9453 18.52 79.7 18.52C79.508 18.52 79.3427 18.472 79.204 18.376C79.0653 18.2693 78.948 18.1413 78.852 17.992L78.34 17.08ZM105.51 21.128C105.51 20.4667 105.414 19.864 105.222 19.32C105.041 18.7653 104.769 18.2907 104.406 17.896C104.054 17.4907 103.622 17.1813 103.11 16.968C102.598 16.744 102.017 16.632 101.366 16.632C100.001 16.632 98.9183 17.032 98.1183 17.832C97.3289 18.6213 96.8383 19.72 96.6463 21.128H105.51ZM107.814 28.728C107.462 29.1547 107.041 29.528 106.55 29.848C106.06 30.1573 105.532 30.4133 104.966 30.616C104.412 30.8187 103.836 30.968 103.238 31.064C102.641 31.1707 102.049 31.224 101.462 31.224C100.342 31.224 99.3076 31.0373 98.3583 30.664C97.4196 30.28 96.6036 29.7253 95.9103 29C95.2276 28.264 94.6943 27.3573 94.3103 26.28C93.9263 25.2027 93.7343 23.9653 93.7343 22.568C93.7343 21.4373 93.9049 20.3813 94.2463 19.4C94.5983 18.4187 95.0996 17.5707 95.7503 16.856C96.4009 16.1307 97.1956 15.5653 98.1343 15.16C99.0729 14.744 100.129 14.536 101.302 14.536C102.273 14.536 103.169 14.7013 103.99 15.032C104.822 15.352 105.537 15.8213 106.134 16.44C106.742 17.048 107.217 17.8053 107.558 18.712C107.9 19.608 108.07 20.632 108.07 21.784C108.07 22.232 108.022 22.5307 107.926 22.68C107.83 22.8293 107.649 22.904 107.382 22.904H96.5503C96.5823 23.928 96.7209 24.8187 96.9663 25.576C97.2223 26.3333 97.5743 26.968 98.0223 27.48C98.4703 27.9813 99.0036 28.36 99.6223 28.616C100.241 28.8613 100.934 28.984 101.702 28.984C102.417 28.984 103.03 28.904 103.542 28.744C104.065 28.5733 104.513 28.392 104.886 28.2C105.26 28.008 105.569 27.832 105.814 27.672C106.07 27.5013 106.289 27.416 106.47 27.416C106.705 27.416 106.886 27.5067 107.014 27.688L107.814 28.728ZM129.633 14.744V31H127.057V20.232C127.057 19.9333 127.073 19.6027 127.105 19.24C127.147 18.8667 127.201 18.52 127.265 18.2L121.633 28.072C121.547 28.232 121.435 28.36 121.297 28.456C121.158 28.552 120.998 28.6 120.817 28.6H120.497C120.315 28.6 120.15 28.552 120.001 28.456C119.862 28.36 119.75 28.232 119.665 28.072L113.937 18.168C113.99 18.488 114.038 18.84 114.081 19.224C114.123 19.5973 114.145 19.9333 114.145 20.232V31H111.569V14.744H113.857C114.059 14.744 114.257 14.792 114.449 14.888C114.641 14.9733 114.806 15.1387 114.945 15.384L120.001 23.832C120.246 24.3227 120.465 24.84 120.657 25.384C120.838 24.8187 121.051 24.3013 121.297 23.832L126.257 15.384C126.395 15.128 126.561 14.9573 126.753 14.872C126.945 14.7867 127.142 14.744 127.345 14.744H129.633ZM156.527 31H153.679V17.032H148.559C148.431 19.0907 148.239 20.872 147.983 22.376C147.727 23.8693 147.417 25.144 147.055 26.2C146.703 27.2453 146.303 28.0987 145.855 28.76C145.417 29.4107 144.953 29.9173 144.463 30.28C143.983 30.6427 143.481 30.888 142.959 31.016C142.447 31.144 141.935 31.208 141.423 31.208C140.516 31.208 140.062 31.064 140.062 30.776V28.968H140.895C141.257 28.968 141.625 28.904 141.999 28.776C142.372 28.648 142.735 28.4027 143.087 28.04C143.449 27.6773 143.796 27.1707 144.127 26.52C144.457 25.8587 144.756 25.0053 145.023 23.96C145.3 22.904 145.535 21.6293 145.727 20.136C145.929 18.632 146.084 16.8507 146.191 14.792H156.527V31ZM175.021 14.792L165.981 35.784C165.885 35.9973 165.763 36.168 165.613 36.296C165.475 36.424 165.256 36.488 164.957 36.488H162.845L165.805 30.056L159.117 14.792H161.581C161.827 14.792 162.019 14.856 162.157 14.984C162.307 15.1013 162.408 15.2347 162.461 15.384L166.797 25.592C166.968 26.04 167.112 26.5093 167.229 27C167.379 26.4987 167.539 26.024 167.709 25.576L171.917 15.384C171.981 15.2133 172.088 15.0747 172.237 14.968C172.397 14.8507 172.573 14.792 172.765 14.792H175.021ZM189.489 14.792V31H186.641V24.12C185.255 24.4827 183.948 24.712 182.721 24.808C181.505 24.8933 180.439 24.7973 179.521 24.52C178.615 24.2427 177.895 23.7573 177.361 23.064C176.839 22.36 176.577 21.3893 176.577 20.152V14.792H179.441V19.72C179.441 20.4987 179.596 21.112 179.905 21.56C180.225 22.008 180.689 22.3173 181.297 22.488C181.905 22.6587 182.657 22.7067 183.553 22.632C184.449 22.5573 185.479 22.3813 186.641 22.104V14.792H189.489ZM215.814 14.792V31H194.006V14.792H196.87V28.84H203.478V14.792H206.342V28.84H212.95V14.792H215.814ZM231.167 21.128C231.167 20.4667 231.071 19.864 230.879 19.32C230.697 18.7653 230.425 18.2907 230.063 17.896C229.711 17.4907 229.279 17.1813 228.767 16.968C228.255 16.744 227.673 16.632 227.023 16.632C225.657 16.632 224.575 17.032 223.775 17.832C222.985 18.6213 222.495 19.72 222.303 21.128H231.167ZM233.471 28.728C233.119 29.1547 232.697 29.528 232.207 29.848C231.716 30.1573 231.188 30.4133 230.623 30.616C230.068 30.8187 229.492 30.968 228.895 31.064C228.297 31.1707 227.705 31.224 227.119 31.224C225.999 31.224 224.964 31.0373 224.015 30.664C223.076 30.28 222.26 29.7253 221.567 29C220.884 28.264 220.351 27.3573 219.967 26.28C219.583 25.2027 219.391 23.9653 219.391 22.568C219.391 21.4373 219.561 20.3813 219.903 19.4C220.255 18.4187 220.756 17.5707 221.407 16.856C222.057 16.1307 222.852 15.5653 223.791 15.16C224.729 14.744 225.785 14.536 226.959 14.536C227.929 14.536 228.825 14.7013 229.647 15.032C230.479 15.352 231.193 15.8213 231.791 16.44C232.399 17.048 232.873 17.8053 233.215 18.712C233.556 19.608 233.727 20.632 233.727 21.784C233.727 22.232 233.679 22.5307 233.583 22.68C233.487 22.8293 233.305 22.904 233.039 22.904H222.207C222.239 23.928 222.377 24.8187 222.623 25.576C222.879 26.3333 223.231 26.968 223.679 27.48C224.127 27.9813 224.66 28.36 225.279 28.616C225.897 28.8613 226.591 28.984 227.359 28.984C228.073 28.984 228.687 28.904 229.199 28.744C229.721 28.5733 230.169 28.392 230.543 28.2C230.916 28.008 231.225 27.832 231.471 27.672C231.727 27.5013 231.945 27.416 232.127 27.416C232.361 27.416 232.543 27.5067 232.671 27.688L233.471 28.728Z" fill="#1F50E8"/>
<path d="M8.48 67C9.54667 67 10.3893 66.7547 11.008 66.264C11.6267 65.7627 11.936 65.08 11.936 64.216C11.936 63.832 11.8773 63.4853 11.76 63.176C11.6427 62.856 11.4507 62.5787 11.184 62.344C10.9173 62.1093 10.56 61.928 10.112 61.8C9.67467 61.672 9.136 61.608 8.496 61.608H4.992V67H8.48ZM4.992 54.712V59.8H8.112C8.58133 59.8 9.01333 59.736 9.408 59.608C9.81333 59.4693 10.16 59.2827 10.448 59.048C10.736 58.8027 10.96 58.5147 11.12 58.184C11.28 57.8427 11.36 57.4693 11.36 57.064C11.36 56.7653 11.3067 56.4773 11.2 56.2C11.0933 55.912 10.912 55.6613 10.656 55.448C10.4 55.224 10.064 55.048 9.648 54.92C9.232 54.7813 8.72 54.712 8.112 54.712H4.992ZM8.192 52.792C9.19467 52.792 10.0533 52.8933 10.768 53.096C11.4827 53.2987 12.0693 53.576 12.528 53.928C12.9867 54.2693 13.3227 54.6747 13.536 55.144C13.7493 55.6133 13.856 56.1147 13.856 56.648C13.856 57 13.808 57.368 13.712 57.752C13.616 58.136 13.4453 58.504 13.2 58.856C12.9653 59.208 12.64 59.528 12.224 59.816C11.8187 60.0933 11.3067 60.312 10.688 60.472C11.9253 60.6853 12.88 61.1173 13.552 61.768C14.224 62.408 14.56 63.256 14.56 64.312C14.56 65.1013 14.4 65.7893 14.08 66.376C13.7707 66.952 13.3387 67.4373 12.784 67.832C12.24 68.2267 11.6 68.52 10.864 68.712C10.128 68.904 9.33867 69 8.496 69H2.256V52.792H8.192ZM36.195 52.744V69H33.619V58.232C33.619 57.9333 33.635 57.6027 33.667 57.24C33.7097 56.8667 33.763 56.52 33.827 56.2L28.195 66.072C28.1097 66.232 27.9977 66.36 27.859 66.456C27.7203 66.552 27.5603 66.6 27.379 66.6H27.059C26.8777 66.6 26.7123 66.552 26.563 66.456C26.4243 66.36 26.3123 66.232 26.227 66.072L20.499 56.168C20.5523 56.488 20.6003 56.84 20.643 57.224C20.6857 57.5973 20.707 57.9333 20.707 58.232V69H18.131V52.744H20.419C20.6217 52.744 20.819 52.792 21.011 52.888C21.203 52.9733 21.3683 53.1387 21.507 53.384L26.563 61.832C26.8083 62.3227 27.027 62.84 27.219 63.384C27.4003 62.8187 27.6137 62.3013 27.859 61.832L32.819 53.384C32.9577 53.128 33.123 52.9573 33.315 52.872C33.507 52.7867 33.7043 52.744 33.907 52.744H36.195ZM51.5415 59.128C51.5415 58.4667 51.4455 57.864 51.2535 57.32C51.0722 56.7653 50.8002 56.2907 50.4375 55.896C50.0855 55.4907 49.6535 55.1813 49.1415 54.968C48.6295 54.744 48.0482 54.632 47.3975 54.632C46.0322 54.632 44.9495 55.032 44.1495 55.832C43.3602 56.6213 42.8695 57.72 42.6775 59.128H51.5415ZM53.8455 66.728C53.4935 67.1547 53.0722 67.528 52.5815 67.848C52.0908 68.1573 51.5628 68.4133 50.9975 68.616C50.4428 68.8187 49.8668 68.968 49.2695 69.064C48.6722 69.1707 48.0802 69.224 47.4935 69.224C46.3735 69.224 45.3388 69.0373 44.3895 68.664C43.4508 68.28 42.6348 67.7253 41.9415 67C41.2588 66.264 40.7255 65.3573 40.3415 64.28C39.9575 63.2027 39.7655 61.9653 39.7655 60.568C39.7655 59.4373 39.9362 58.3813 40.2775 57.4C40.6295 56.4187 41.1308 55.5707 41.7815 54.856C42.4322 54.1307 43.2268 53.5653 44.1655 53.16C45.1042 52.744 46.1602 52.536 47.3335 52.536C48.3042 52.536 49.2002 52.7013 50.0215 53.032C50.8535 53.352 51.5682 53.8213 52.1655 54.44C52.7735 55.048 53.2482 55.8053 53.5895 56.712C53.9308 57.608 54.1015 58.632 54.1015 59.784C54.1015 60.232 54.0535 60.5307 53.9575 60.68C53.8615 60.8293 53.6802 60.904 53.4135 60.904H42.5815C42.6135 61.928 42.7522 62.8187 42.9975 63.576C43.2535 64.3333 43.6055 64.968 44.0535 65.48C44.5015 65.9813 45.0348 66.36 45.6535 66.616C46.2722 66.8613 46.9655 66.984 47.7335 66.984C48.4482 66.984 49.0615 66.904 49.5735 66.744C50.0962 66.5733 50.5442 66.392 50.9175 66.2C51.2908 66.008 51.6002 65.832 51.8455 65.672C52.1015 65.5013 52.3202 65.416 52.5015 65.416C52.7362 65.416 52.9175 65.5067 53.0455 65.688L53.8455 66.728ZM68.8798 55.672C68.7944 55.7893 68.7091 55.88 68.6238 55.944C68.5384 56.008 68.4211 56.04 68.2718 56.04C68.1118 56.04 67.9358 55.976 67.7438 55.848C67.5518 55.7093 67.3118 55.56 67.0238 55.4C66.7464 55.24 66.3998 55.096 65.9838 54.968C65.5784 54.8293 65.0771 54.76 64.4798 54.76C63.6798 54.76 62.9758 54.904 62.3678 55.192C61.7598 55.4693 61.2478 55.8747 60.8318 56.408C60.4264 56.9413 60.1171 57.5867 59.9038 58.344C59.7011 59.1013 59.5998 59.9493 59.5998 60.888C59.5998 61.8693 59.7118 62.744 59.9358 63.512C60.1598 64.2693 60.4744 64.9093 60.8798 65.432C61.2958 65.944 61.7918 66.3387 62.3678 66.616C62.9544 66.8827 63.6104 67.016 64.3358 67.016C65.0291 67.016 65.5998 66.936 66.0478 66.776C66.4958 66.6053 66.8638 66.4187 67.1518 66.216C67.4504 66.0133 67.6958 65.832 67.8878 65.672C68.0904 65.5013 68.2878 65.416 68.4798 65.416C68.7144 65.416 68.8958 65.5067 69.0238 65.688L69.8238 66.728C69.4718 67.1653 69.0718 67.5387 68.6238 67.848C68.1758 68.1573 67.6904 68.4187 67.1678 68.632C66.6558 68.8347 66.1171 68.984 65.5518 69.08C64.9864 69.176 64.4104 69.224 63.8238 69.224C62.8104 69.224 61.8664 69.0373 60.9918 68.664C60.1278 68.2907 59.3758 67.752 58.7358 67.048C58.0958 66.3333 57.5944 65.4587 57.2318 64.424C56.8691 63.3893 56.6878 62.2107 56.6878 60.888C56.6878 59.6827 56.8531 58.568 57.1838 57.544C57.5251 56.52 58.0158 55.64 58.6558 54.904C59.3064 54.1573 60.1011 53.576 61.0398 53.16C61.9891 52.744 63.0771 52.536 64.3038 52.536C65.4451 52.536 66.4478 52.7227 67.3118 53.096C68.1864 53.4587 68.9598 53.976 69.6318 54.648L68.8798 55.672ZM86.353 54.968H80.129V69H77.281V54.968H71.057V52.792H86.353V54.968ZM99.2603 59.128C99.2603 58.4667 99.1643 57.864 98.9723 57.32C98.7909 56.7653 98.5189 56.2907 98.1563 55.896C97.8043 55.4907 97.3723 55.1813 96.8603 54.968C96.3483 54.744 95.7669 54.632 95.1163 54.632C93.7509 54.632 92.6683 55.032 91.8683 55.832C91.0789 56.6213 90.5883 57.72 90.3963 59.128H99.2603ZM101.564 66.728C101.212 67.1547 100.791 67.528 100.3 67.848C99.8096 68.1573 99.2816 68.4133 98.7163 68.616C98.1616 68.8187 97.5856 68.968 96.9883 69.064C96.3909 69.1707 95.7989 69.224 95.2123 69.224C94.0923 69.224 93.0576 69.0373 92.1083 68.664C91.1696 68.28 90.3536 67.7253 89.6603 67C88.9776 66.264 88.4443 65.3573 88.0603 64.28C87.6763 63.2027 87.4843 61.9653 87.4843 60.568C87.4843 59.4373 87.6549 58.3813 87.9963 57.4C88.3483 56.4187 88.8496 55.5707 89.5003 54.856C90.1509 54.1307 90.9456 53.5653 91.8843 53.16C92.8229 52.744 93.8789 52.536 95.0523 52.536C96.0229 52.536 96.9189 52.7013 97.7403 53.032C98.5723 53.352 99.2869 53.8213 99.8843 54.44C100.492 55.048 100.967 55.8053 101.308 56.712C101.65 57.608 101.82 58.632 101.82 59.784C101.82 60.232 101.772 60.5307 101.676 60.68C101.58 60.8293 101.399 60.904 101.132 60.904H90.3003C90.3323 61.928 90.4709 62.8187 90.7163 63.576C90.9723 64.3333 91.3243 64.968 91.7723 65.48C92.2203 65.9813 92.7536 66.36 93.3723 66.616C93.9909 66.8613 94.6843 66.984 95.4523 66.984C96.1669 66.984 96.7803 66.904 97.2923 66.744C97.8149 66.5733 98.2629 66.392 98.6363 66.2C99.0096 66.008 99.3189 65.832 99.5643 65.672C99.8203 65.5013 100.039 65.416 100.22 65.416C100.455 65.416 100.636 65.5067 100.764 65.688L101.564 66.728ZM108.743 46.072V55.224C108.743 55.704 108.732 56.1733 108.711 56.632C108.689 57.0907 108.663 57.5547 108.631 58.024C108.599 58.4827 108.556 58.9573 108.503 59.448C108.46 59.928 108.407 60.4453 108.343 61H106.423C106.359 60.4453 106.3 59.928 106.247 59.448C106.204 58.9573 106.167 58.4827 106.135 58.024C106.103 57.5547 106.076 57.0907 106.055 56.632C106.033 56.1733 106.023 55.704 106.023 55.224V46.072H108.743ZM105.335 67.24C105.335 66.9627 105.383 66.7013 105.479 66.456C105.585 66.2107 105.729 65.9973 105.911 65.816C106.092 65.6347 106.3 65.4907 106.535 65.384C106.78 65.2773 107.047 65.224 107.335 65.224C107.612 65.224 107.868 65.2773 108.103 65.384C108.348 65.4907 108.561 65.6347 108.743 65.816C108.924 65.9973 109.068 66.2107 109.175 66.456C109.281 66.7013 109.335 66.9627 109.335 67.24C109.335 67.528 109.281 67.7947 109.175 68.04C109.068 68.2747 108.924 68.4827 108.743 68.664C108.561 68.8453 108.348 68.984 108.103 69.08C107.868 69.1867 107.612 69.24 107.335 69.24C107.047 69.24 106.78 69.1867 106.535 69.08C106.3 68.984 106.092 68.8453 105.911 68.664C105.729 68.4827 105.585 68.2747 105.479 68.04C105.383 67.7947 105.335 67.528 105.335 67.24Z" fill="#EE3F58"/>
</svg>
